<svg width="109" height="36" viewBox="0 0 109 36" fill="none" xmlns="http://www.w3.org/2000/svg">
<g clip-path="url(#clip0)">
<g clip-path="url(#clip1)">
<path fill-rule="evenodd" clip-rule="evenodd" d="M9.81024 21.9577C9.81024 21.9577 14.8061 27.0009 23.6342 28.1581C22.8726 28.8803 22.0324 29.5146 21.1292 30.0492L21.1002 30.0675C18.8495 31.3951 16.2708 32.0631 13.6586 31.9952C12.8077 31.9743 11.9604 31.8761 11.1273 31.7017C11.0374 31.6829 10.948 31.6597 10.8581 31.6392C9.51893 28.3552 9.51193 25.0845 9.64816 23.3119C9.71278 22.4644 9.81024 21.9577 9.81024 21.9577V21.9577ZM8.47754 16.3308C8.47754 16.3308 6.60801 23.1778 10.0202 31.4023C9.0141 31.1035 8.04458 30.6929 7.12978 30.1784L7.10016 30.1622C4.82448 28.8772 2.95627 26.9779 1.70908 24.6812C1.30202 23.9339 0.963559 23.1512 0.697852 22.3427C0.668775 22.2549 0.644544 22.1661 0.617082 22.0778C2.79139 19.2767 5.62101 17.6355 7.22401 16.8665C7.99024 16.4988 8.47754 16.3297 8.47754 16.3297V16.3308ZM27.6123 14.7369C27.8519 15.7385 27.9865 16.7804 27.9979 17.8525L27.9989 17.8869C28.0237 20.5002 27.3128 23.0678 25.9474 25.2962C25.5039 26.0222 24.9955 26.7065 24.4284 27.3407C24.3665 27.4091 24.3019 27.4748 24.2389 27.5421C20.7259 27.0602 17.8904 25.4308 16.4225 24.4265C15.7215 23.9462 15.3316 23.6097 15.3316 23.6097C15.3316 23.6097 22.1965 21.8042 27.6118 14.7369H27.6123ZM3.75954 8.44231C7.27301 8.92423 10.1091 10.5542 11.5764 11.5578C12.2775 12.0371 12.6673 12.3747 12.6673 12.3747C12.6673 12.3747 5.80301 14.1791 0.386083 21.2458C0.141644 20.2254 0.0125024 19.1807 0.00108249 18.1314L-0.000532893 18.0975C-0.0253211 15.484 0.685605 12.9163 2.05101 10.6877C2.49478 9.96172 3.00337 9.27741 3.57054 8.64315C3.63193 8.57423 3.69708 8.50854 3.75954 8.44123V8.44231ZM17.9787 4.57615C18.985 4.8744 19.9545 5.28477 20.8692 5.79954L20.8988 5.81569C23.1745 7.10082 25.0428 9.00039 26.2899 11.2972C26.6973 12.0442 27.0358 12.8268 27.3011 13.6352C27.3296 13.723 27.3539 13.8113 27.3813 13.9002C25.207 16.7018 22.3779 18.3425 20.7744 19.1114C20.0087 19.4786 19.5214 19.6482 19.5214 19.6482C19.5214 19.6482 21.3904 12.7995 17.9787 4.57615V4.57615ZM14.0716 4L14.3425 4.00377C15.1943 4.02531 16.0424 4.12277 16.8732 4.29723C16.9632 4.31662 17.0525 4.33977 17.1425 4.36023C18.4816 7.64377 18.4881 10.9144 18.3524 12.6875C18.2878 13.5345 18.1903 14.0418 18.1903 14.0418C18.1903 14.0418 13.195 8.99854 4.36639 7.84192C5.12794 7.11986 5.96797 6.48536 6.87078 5.95031C6.88101 5.94492 6.89016 5.93792 6.90039 5.93254C9.15123 4.60481 11.7301 3.93682 14.3425 4.00485L14.0716 4Z" fill="#FE6B64"/>
</g>
<path d="M41.02 11.652V18.542C41.1733 18.602 41.3567 18.6453 41.57 18.672C41.75 18.712 41.97 18.7453 42.23 18.772C42.4967 18.792 42.8067 18.802 43.16 18.802C43.9667 18.802 44.6233 18.702 45.13 18.502C45.6367 18.302 46.0367 18.0387 46.33 17.712C46.6233 17.3853 46.8233 17.012 46.93 16.592C47.0433 16.1653 47.1 15.7253 47.1 15.272C47.1 14.772 47.0567 14.2987 46.97 13.852C46.8833 13.4053 46.6967 13.0087 46.41 12.662C46.1233 12.322 45.7067 12.0487 45.16 11.842C44.6067 11.642 43.8667 11.542 42.94 11.542C42.6467 11.542 42.3367 11.5487 42.01 11.562C41.6767 11.5753 41.3467 11.6053 41.02 11.652ZM41.02 20.202V23.082C41.02 23.582 41.0367 24.022 41.07 24.402C41.1033 24.7887 41.1467 25.122 41.2 25.402C41.2467 25.6887 41.2933 25.9287 41.34 26.122C41.3867 26.3153 41.4233 26.4687 41.45 26.582C41.33 26.6487 41.2 26.7053 41.06 26.752C40.9133 26.8053 40.76 26.8487 40.6 26.882C40.44 26.9153 40.2833 26.942 40.13 26.962C39.97 26.9753 39.82 26.982 39.68 26.982C39.48 26.982 39.29 26.962 39.11 26.922C38.9367 26.882 38.7867 26.8187 38.66 26.732C38.5333 26.6387 38.4367 26.5187 38.37 26.372C38.2967 26.2253 38.26 26.0387 38.26 25.812V11.772L36 11.912V10.882C36.1467 10.8287 36.4033 10.752 36.77 10.652C37.13 10.552 37.61 10.4553 38.21 10.362C38.8167 10.262 39.5467 10.1753 40.4 10.102C41.2533 10.0287 42.25 9.992 43.39 9.992C44.2833 9.992 45.1233 10.0687 45.91 10.222C46.6967 10.3753 47.3867 10.6487 47.98 11.042C48.5733 11.4353 49.04 11.972 49.38 12.652C49.7267 13.3387 49.9 14.212 49.9 15.272C49.9 16.0653 49.7667 16.7753 49.5 17.402C49.2333 18.022 48.85 18.5487 48.35 18.982C47.85 19.4153 47.24 19.7453 46.52 19.972C45.8067 20.1987 45 20.312 44.1 20.312C44.0067 20.312 43.8567 20.312 43.65 20.312C43.4433 20.312 43.2033 20.3087 42.93 20.302C42.6567 20.2953 42.3533 20.2853 42.02 20.272C41.6933 20.252 41.36 20.2287 41.02 20.202ZM59.94 25.862V25.742C59.94 25.742 59.8867 25.7753 59.78 25.842C59.68 25.9087 59.5367 25.992 59.35 26.092C59.1633 26.192 58.95 26.302 58.71 26.422C58.4633 26.5487 58.1933 26.662 57.9 26.762C57.6067 26.8687 57.3 26.9587 56.98 27.032C56.6667 27.0987 56.35 27.132 56.03 27.132C55.5233 27.132 55.0367 27.0653 54.57 26.932C54.11 26.792 53.7067 26.5787 53.36 26.292C53.0133 26.0053 52.7367 25.642 52.53 25.202C52.3233 24.762 52.22 24.2387 52.22 23.632C52.22 22.9587 52.37 22.3887 52.67 21.922C52.97 21.4553 53.3867 21.0753 53.92 20.782C54.46 20.4887 55.1 20.2753 55.84 20.142C56.58 20.0153 57.3967 19.952 58.29 19.952H59.94V19.072C59.94 18.6187 59.9233 18.182 59.89 17.762C59.8567 17.3487 59.7733 16.9853 59.64 16.672C59.5133 16.3587 59.3267 16.1087 59.08 15.922C58.8333 15.7353 58.5033 15.642 58.09 15.642C57.69 15.642 57.29 15.712 56.89 15.852C56.4967 15.9987 56.1067 16.182 55.72 16.402C55.34 16.622 54.9733 16.862 54.62 17.122C54.2667 17.382 53.9467 17.6287 53.66 17.862L52.7 16.572C52.58 16.432 52.52 16.2887 52.52 16.142C52.52 15.882 52.6833 15.6487 53.01 15.442C53.3367 15.2287 53.7433 15.0453 54.23 14.892C54.7167 14.7387 55.24 14.622 55.8 14.542C56.3667 14.4553 56.8933 14.412 57.38 14.412C58.0933 14.412 58.77 14.4953 59.41 14.662C60.0567 14.8353 60.62 15.1087 61.1 15.482C61.58 15.8553 61.96 16.3353 62.24 16.922C62.52 17.5153 62.66 18.232 62.66 19.072V25.602H64.7V26.482C64.5667 26.5487 64.3833 26.6153 64.15 26.682C63.9233 26.742 63.67 26.7953 63.39 26.842C63.1033 26.8887 62.8067 26.9253 62.5 26.952C62.1933 26.972 61.9 26.982 61.62 26.982C61.4333 26.982 61.24 26.972 61.04 26.952C60.8467 26.9253 60.67 26.872 60.51 26.792C60.35 26.7053 60.2167 26.592 60.11 26.452C60.0033 26.3053 59.9467 26.1087 59.94 25.862ZM56.85 25.402C57.1233 25.402 57.4367 25.3653 57.79 25.292C58.1433 25.2187 58.48 25.1387 58.8 25.052C59.18 24.952 59.56 24.8287 59.94 24.682V21.392H57.97C57.6767 21.392 57.35 21.4187 56.99 21.472C56.6367 21.532 56.3067 21.6353 56 21.782C55.6933 21.9353 55.4333 22.1487 55.22 22.422C55.0067 22.6953 54.9 23.0553 54.9 23.502C54.9 23.782 54.9433 24.0387 55.03 24.272C55.1167 24.4987 55.2433 24.6987 55.41 24.872C55.57 25.0387 55.7733 25.1687 56.02 25.262C56.26 25.3553 56.5367 25.402 56.85 25.402ZM67.36 23.932C67.5733 24.092 67.83 24.282 68.13 24.502C68.43 24.7153 68.76 24.922 69.12 25.122C69.48 25.322 69.86 25.4953 70.26 25.642C70.66 25.7887 71.0667 25.862 71.48 25.862C71.74 25.862 71.99 25.822 72.23 25.742C72.47 25.6687 72.6833 25.5587 72.87 25.412C73.0567 25.2653 73.2033 25.0853 73.31 24.872C73.4233 24.652 73.48 24.4053 73.48 24.132C73.48 23.812 73.3767 23.532 73.17 23.292C72.9633 23.052 72.7067 22.8387 72.4 22.652C72.1 22.4587 71.78 22.292 71.44 22.152C71.0933 22.0053 70.7867 21.872 70.52 21.752C70.06 21.552 69.6033 21.342 69.15 21.122C68.69 20.902 68.28 20.642 67.92 20.342C67.5533 20.042 67.2567 19.6853 67.03 19.272C66.7967 18.8587 66.68 18.352 66.68 17.752C66.68 17.1453 66.83 16.632 67.13 16.212C67.43 15.792 67.82 15.4453 68.3 15.172C68.78 14.9053 69.3167 14.712 69.91 14.592C70.5033 14.472 71.09 14.412 71.67 14.412C72.03 14.412 72.41 14.4253 72.81 14.452C73.2167 14.4853 73.59 14.5387 73.93 14.612C74.27 14.6853 74.55 14.782 74.77 14.902C74.9967 15.0153 75.11 15.1553 75.11 15.322C75.11 15.382 75.0867 15.4653 75.04 15.572L74.24 17.102C74.0933 17.0087 73.89 16.8853 73.63 16.732C73.3767 16.5787 73.09 16.432 72.77 16.292C72.45 16.152 72.11 16.032 71.75 15.932C71.3833 15.832 71.0133 15.782 70.64 15.782C70.1 15.782 69.66 15.9053 69.32 16.152C68.9733 16.4053 68.8 16.762 68.8 17.222C68.8 17.582 68.9033 17.8953 69.11 18.162C69.31 18.4287 69.5767 18.6653 69.91 18.872C70.2433 19.0787 70.62 19.2653 71.04 19.432C71.4667 19.5987 71.9033 19.772 72.35 19.952C72.7967 20.132 73.2333 20.322 73.66 20.522C74.0867 20.7287 74.4633 20.9653 74.79 21.232C75.1233 21.5053 75.3933 21.8187 75.6 22.172C75.8 22.5253 75.9 22.9453 75.9 23.432C75.9 24.1187 75.7533 24.6953 75.46 25.162C75.16 25.6353 74.7733 26.0187 74.3 26.312C73.8267 26.6053 73.3 26.8153 72.72 26.942C72.14 27.0687 71.5667 27.132 71 27.132C70.52 27.132 70.0067 27.082 69.46 26.982C68.9133 26.8753 68.41 26.742 67.95 26.582C67.4833 26.422 67.1 26.2487 66.8 26.062C66.5 25.8687 66.35 25.692 66.35 25.532C66.35 25.432 66.3733 25.332 66.42 25.232L67.36 23.932ZM82.72 14.772H86.8V15.272C86.8 15.6253 86.7233 15.872 86.57 16.012C86.4167 16.1453 86.1733 16.212 85.84 16.212H82.72V23.082C82.72 23.9553 82.88 24.6153 83.2 25.062C83.52 25.5153 84.01 25.742 84.67 25.742C84.9567 25.742 85.2533 25.7053 85.56 25.632C85.8667 25.5653 86.14 25.492 86.38 25.412C86.62 25.332 86.8167 25.2653 86.97 25.212C87.1233 25.152 87.1967 25.1287 87.19 25.142L87.56 25.952C87.2867 26.1253 87.0133 26.282 86.74 26.422C86.4667 26.5687 86.18 26.6953 85.88 26.802C85.5733 26.9087 85.2433 26.992 84.89 27.052C84.5367 27.1053 84.1433 27.132 83.71 27.132C83.1367 27.132 82.6233 27.0453 82.17 26.872C81.71 26.6987 81.32 26.4453 81 26.112C80.68 25.7853 80.4333 25.3853 80.26 24.912C80.0867 24.432 80 23.892 80 23.292V16.212H77.58V15.682C77.58 15.3353 77.6567 15.0953 77.81 14.962C77.9633 14.8353 78.2067 14.772 78.54 14.772H80V11.982C80 11.7687 80.0333 11.592 80.1 11.452C80.1667 11.3053 80.2633 11.192 80.39 11.112C80.5167 11.0253 80.66 10.9653 80.82 10.932C80.9867 10.8987 81.1733 10.882 81.38 10.882C81.5 10.882 81.6367 10.8887 81.79 10.902C81.9433 10.922 82.0967 10.9453 82.25 10.972C82.4033 10.9987 82.5467 11.0353 82.68 11.082C82.82 11.1287 82.9433 11.182 83.05 11.242C83.03 11.3553 83 11.502 82.96 11.682C82.92 11.8687 82.8833 12.102 82.85 12.382C82.81 12.662 82.78 12.9987 82.76 13.392C82.7333 13.7853 82.72 14.2453 82.72 14.772ZM91.56 19.932H97.63C97.6767 19.772 97.7067 19.6153 97.72 19.462C97.74 19.302 97.75 19.1387 97.75 18.972C97.75 18.5853 97.6833 18.1987 97.55 17.812C97.4233 17.4253 97.2367 17.0753 96.99 16.762C96.7433 16.4487 96.44 16.1953 96.08 16.002C95.7133 15.8087 95.2967 15.712 94.83 15.712C94.23 15.712 93.7267 15.8253 93.32 16.052C92.92 16.2853 92.5933 16.5953 92.34 16.982C92.0867 17.3687 91.9 17.8187 91.78 18.332C91.6667 18.8387 91.5933 19.372 91.56 19.932ZM88.83 20.772C88.83 19.8453 88.98 18.992 89.28 18.212C89.58 17.432 90.0133 16.762 90.58 16.202C91.1467 15.642 91.84 15.202 92.66 14.882C93.48 14.5687 94.41 14.412 95.45 14.412C96.23 14.412 96.93 14.5353 97.55 14.782C98.1633 15.0353 98.6867 15.372 99.12 15.792C99.5467 16.212 99.8733 16.6987 100.1 17.252C100.327 17.812 100.44 18.392 100.44 18.992C100.44 19.272 100.417 19.552 100.37 19.832C100.323 20.112 100.233 20.3653 100.1 20.592C99.9667 20.8187 99.78 21.0053 99.54 21.152C99.3 21.2987 98.9833 21.372 98.59 21.372H91.58C91.66 22.072 91.8433 22.692 92.13 23.232C92.4233 23.772 92.7967 24.2287 93.25 24.602C93.7033 24.9687 94.2267 25.2453 94.82 25.432C95.4133 25.6253 96.0533 25.722 96.74 25.722C97.2067 25.722 97.69 25.6787 98.19 25.592C98.69 25.512 99.2067 25.3853 99.74 25.212L100.13 26.002C99.8033 26.2153 99.4567 26.402 99.09 26.562C98.7233 26.7153 98.3467 26.842 97.96 26.942C97.5667 27.042 97.1667 27.1153 96.76 27.162C96.3533 27.2087 95.9567 27.232 95.57 27.232C94.71 27.232 93.8733 27.0953 93.06 26.822C92.2533 26.5553 91.5367 26.152 90.91 25.612C90.2767 25.072 89.7733 24.3987 89.4 23.592C89.02 22.792 88.83 21.852 88.83 20.772ZM106.93 9.392V25.602H108.97V26.482C108.837 26.5487 108.657 26.6153 108.43 26.682C108.197 26.742 107.94 26.7953 107.66 26.842C107.38 26.8887 107.087 26.9253 106.78 26.952C106.473 26.972 106.18 26.982 105.9 26.982C105.66 26.982 105.437 26.9687 105.23 26.942C105.03 26.9153 104.857 26.862 104.71 26.782C104.557 26.6953 104.44 26.582 104.36 26.442C104.273 26.2953 104.23 26.102 104.23 25.862V10.142H102.15V9.252C102.317 9.18534 102.55 9.11867 102.85 9.052C103.15 8.992 103.477 8.942 103.83 8.902C104.183 8.862 104.543 8.832 104.91 8.812C105.283 8.78534 105.623 8.772 105.93 8.772C106.09 8.772 106.233 8.77534 106.36 8.782C106.487 8.78867 106.593 8.812 106.68 8.852C106.76 8.892 106.823 8.952 106.87 9.032C106.91 9.11867 106.93 9.23867 106.93 9.392Z" fill="white"/>
</g>
<defs>
<clipPath id="clip0">
<rect width="108.973" height="36" fill="white"/>
</clipPath>
<clipPath id="clip1">
<rect width="28" height="28" fill="white" transform="translate(0 4)"/>
</clipPath>
</defs>
</svg>
