<?xml version="1.0" standalone="no"?>
<svg xmlns="http://www.w3.org/2000/svg" viewBox="0 0 108.973 36" width="108.973" height="36"><g fill="#cb7777" color="#cb7777" transform="translate(0 4) scale(0.5384616)"><svg width="52.0" height="52.0" x="0.0" y="0.0" viewBox="0 0 52 52"><path fill="currentColor" fill-rule="evenodd" d="M18.22 33.35s9.278 9.366 25.673 11.515a26.024 26.024 0 0 1-4.652 3.512l-.054.034a25.875 25.875 0 0 1-13.82 3.58 26.054 26.054 0 0 1-4.701-.545c-.167-.035-.333-.078-.5-.116-2.487-6.099-2.5-12.173-2.247-15.465.12-1.574.301-2.515.301-2.515zM15.745 22.9S12.273 35.616 18.61 50.89a26.12 26.12 0 0 1-5.368-2.273l-.055-.03A25.865 25.865 0 0 1 3.175 38.408a26.147 26.147 0 0 1-1.878-4.343c-.054-.163-.099-.328-.15-.492 4.038-5.202 9.293-8.25 12.27-9.678 1.423-.683 2.328-.997 2.328-.997zm35.536-2.96c.445 1.86.695 3.795.716 5.786l.002.064a25.868 25.868 0 0 1-3.81 13.76 26.134 26.134 0 0 1-2.821 3.797c-.115.127-.235.249-.352.374-6.524-.895-11.79-3.921-14.516-5.786-1.302-.892-2.026-1.517-2.026-1.517S41.223 33.065 51.28 19.94zM6.983 8.25c6.525.895 11.792 3.922 14.517 5.786 1.302.89 2.026 1.517 2.026 1.517S10.778 18.904.718 32.028a26.047 26.047 0 0 1-.715-5.784L0 26.181A25.871 25.871 0 0 1 3.81 12.42a26.18 26.18 0 0 1 2.822-3.797c.114-.128.235-.25.351-.375zM33.39 1.07a26.021 26.021 0 0 1 5.368 2.272l.055.03a25.864 25.864 0 0 1 10.012 10.18 25.98 25.98 0 0 1 1.878 4.342c.053.163.098.327.149.492-4.038 5.203-9.292 8.25-12.27 9.678-1.422.682-2.327.997-2.327.997s3.471-12.719-2.865-27.991zM26.134 0l.503.007c1.582.04 3.157.221 4.7.545.167.036.333.079.5.117 2.487 6.098 2.499 12.172 2.247 15.465-.12 1.573-.301 2.515-.301 2.515S24.506 9.283 8.11 7.135a26.1 26.1 0 0 1 4.651-3.513c.019-.01.036-.023.055-.033A25.877 25.877 0 0 1 26.637.009z"></path></svg></g><path fill="#302e50" fill-rule="nonzero" d="M5.02 2.88L5.02 9.77Q5.25 9.86 5.57 9.90L5.57 9.90Q5.84 9.96 6.23 10.00Q6.63 10.03 7.16 10.03L7.16 10.03Q8.37 10.03 9.13 9.73Q9.89 9.43 10.33 8.94Q10.77 8.45 10.93 7.82Q11.10 7.18 11.10 6.50L11.10 6.50Q11.10 5.75 10.97 5.08Q10.84 4.41 10.41 3.89Q9.98 3.38 9.16 3.07Q8.33 2.77 6.94 2.77L6.94 2.77Q6.50 2.77 6.01 2.79Q5.51 2.81 5.02 2.88L5.02 2.88ZM5.02 11.43L5.02 14.31Q5.02 15.06 5.07 15.63Q5.12 16.21 5.20 16.63Q5.27 17.06 5.34 17.35Q5.41 17.64 5.45 17.81L5.45 17.81Q5.27 17.91 5.06 17.98Q4.84 18.06 4.60 18.11Q4.36 18.16 4.13 18.19Q3.89 18.21 3.68 18.21L3.68 18.21Q3.38 18.21 3.11 18.15Q2.85 18.09 2.66 17.96Q2.47 17.82 2.37 17.60Q2.26 17.38 2.26 17.04L2.26 17.04L2.26 3L0 3.14L0 2.11Q0.22 2.03 0.77 1.88Q1.31 1.73 2.21 1.59Q3.12 1.44 4.40 1.33Q5.68 1.22 7.39 1.22L7.39 1.22Q8.73 1.22 9.91 1.45Q11.09 1.68 11.98 2.27Q12.87 2.86 13.38 3.88Q13.90 4.91 13.90 6.50L13.90 6.50Q13.90 7.69 13.50 8.63Q13.10 9.56 12.35 10.21Q11.60 10.86 10.52 11.20Q9.45 11.54 8.10 11.54L8.10 11.54Q7.96 11.54 7.65 11.54Q7.34 11.54 6.93 11.53Q6.52 11.52 6.02 11.50Q5.53 11.47 5.02 11.43L5.02 11.43ZM23.94 17.09L23.94 16.97Q23.94 16.97 23.78 17.07Q23.63 17.17 23.35 17.32Q23.07 17.47 22.71 17.65Q22.34 17.84 21.90 17.99Q21.46 18.15 20.98 18.26Q20.51 18.36 20.03 18.36L20.03 18.36Q19.27 18.36 18.57 18.16Q17.88 17.95 17.36 17.52Q16.84 17.09 16.53 16.43Q16.22 15.77 16.22 14.86L16.22 14.86Q16.22 13.85 16.67 13.15Q17.12 12.45 17.92 12.01Q18.73 11.57 19.84 11.37Q20.95 11.18 22.29 11.18L22.29 11.18L23.94 11.18L23.94 10.30Q23.94 9.62 23.89 8.99Q23.84 8.37 23.64 7.90Q23.45 7.43 23.08 7.15Q22.71 6.87 22.09 6.87L22.09 6.87Q21.49 6.87 20.89 7.08Q20.30 7.30 19.72 7.63Q19.15 7.96 18.62 8.35Q18.09 8.74 17.66 9.09L17.66 9.09L16.70 7.80Q16.52 7.59 16.52 7.37L16.52 7.37Q16.52 6.98 17.01 6.67Q17.50 6.35 18.23 6.12Q18.96 5.89 19.80 5.77Q20.65 5.64 21.38 5.64L21.38 5.64Q22.45 5.64 23.41 5.89Q24.38 6.15 25.10 6.71Q25.82 7.27 26.24 8.15Q26.66 9.04 26.66 10.30L26.66 10.30L26.66 16.83L28.70 16.83L28.70 17.71Q28.50 17.81 28.15 17.91Q27.81 18 27.39 18.07Q26.96 18.14 26.50 18.18Q26.04 18.21 25.62 18.21L25.62 18.21Q25.34 18.21 25.04 18.18Q24.75 18.14 24.51 18.02Q24.27 17.89 24.11 17.68Q23.95 17.46 23.94 17.09L23.94 17.09ZM20.85 16.63L20.85 16.63Q21.26 16.63 21.79 16.52Q22.32 16.41 22.80 16.28L22.80 16.28Q23.37 16.13 23.94 15.91L23.94 15.91L23.94 12.62L21.97 12.62Q21.53 12.62 20.99 12.70Q20.46 12.79 20.00 13.01Q19.54 13.24 19.22 13.65Q18.90 14.06 18.90 14.73L18.90 14.73Q18.90 15.15 19.03 15.50Q19.16 15.84 19.41 16.10Q19.65 16.35 20.02 16.49Q20.38 16.63 20.85 16.63ZM31.36 15.16L31.36 15.16Q31.68 15.40 32.13 15.73Q32.58 16.05 33.12 16.35Q33.66 16.65 34.26 16.87Q34.86 17.09 35.48 17.09L35.48 17.09Q35.87 17.09 36.23 16.97Q36.59 16.86 36.87 16.64Q37.15 16.42 37.31 16.10Q37.48 15.77 37.48 15.36L37.48 15.36Q37.48 14.88 37.17 14.52Q36.86 14.16 36.40 13.88Q35.95 13.59 35.44 13.38Q34.92 13.16 34.52 12.98L34.52 12.98Q33.83 12.68 33.15 12.35Q32.46 12.02 31.92 11.57Q31.37 11.12 31.03 10.50Q30.68 9.88 30.68 8.98L30.68 8.98Q30.68 8.07 31.13 7.44Q31.58 6.81 32.30 6.40Q33.02 6 33.91 5.82Q34.80 5.64 35.67 5.64L35.67 5.64Q36.21 5.64 36.81 5.68Q37.42 5.73 37.93 5.84Q38.44 5.95 38.77 6.13Q39.11 6.30 39.11 6.55L39.11 6.55Q39.11 6.64 39.04 6.80L39.04 6.80L38.24 8.33Q38.02 8.19 37.63 7.96Q37.25 7.73 36.77 7.52Q36.29 7.31 35.75 7.16Q35.20 7.01 34.64 7.01L34.64 7.01Q33.83 7.01 33.32 7.38Q32.80 7.76 32.80 8.45L32.80 8.45Q32.80 8.99 33.11 9.39Q33.41 9.79 33.91 10.10Q34.41 10.41 35.04 10.66Q35.68 10.91 36.35 11.18Q37.02 11.45 37.66 11.75Q38.30 12.06 38.79 12.46Q39.29 12.87 39.60 13.40Q39.90 13.93 39.90 14.66L39.90 14.66Q39.90 15.69 39.46 16.39Q39.01 17.10 38.30 17.54Q37.59 17.98 36.72 18.17Q35.85 18.36 35.00 18.36L35.00 18.36Q34.28 18.36 33.46 18.21Q32.64 18.05 31.95 17.81Q31.25 17.57 30.80 17.29Q30.35 17.00 30.35 16.76L30.35 16.76Q30.35 16.61 30.42 16.46L30.42 16.46L31.36 15.16ZM46.72 6L50.80 6L50.80 6.50Q50.80 7.03 50.57 7.24Q50.34 7.44 49.84 7.44L49.84 7.44L46.72 7.44L46.72 14.31Q46.72 15.62 47.20 16.29Q47.68 16.97 48.67 16.97L48.67 16.97Q49.10 16.97 49.56 16.86Q50.02 16.76 50.38 16.64Q50.74 16.52 50.97 16.44Q51.20 16.35 51.19 16.37L51.19 16.37L51.56 17.18Q51.15 17.44 50.74 17.65Q50.33 17.87 49.88 18.03Q49.42 18.19 48.89 18.28Q48.36 18.36 47.71 18.36L47.71 18.36Q46.85 18.36 46.17 18.10Q45.48 17.84 45 17.34Q44.52 16.85 44.26 16.14Q44.00 15.42 44.00 14.52L44.00 14.52L44.00 7.44L41.58 7.44L41.58 6.91Q41.58 6.39 41.81 6.19Q42.04 6 42.54 6L42.54 6L44.00 6L44.00 3.21Q44.00 2.89 44.10 2.68Q44.20 2.46 44.39 2.34Q44.58 2.21 44.82 2.16Q45.07 2.11 45.38 2.11L45.38 2.11Q45.56 2.11 45.79 2.13Q46.02 2.16 46.25 2.20Q46.48 2.24 46.68 2.31Q46.89 2.38 47.05 2.47L47.05 2.47Q47.02 2.64 46.96 2.91Q46.90 3.19 46.85 3.61Q46.79 4.03 46.76 4.62Q46.72 5.21 46.72 6L46.72 6ZM55.56 11.16L61.63 11.16Q61.70 10.92 61.72 10.69Q61.75 10.45 61.75 10.20L61.75 10.20Q61.75 9.62 61.55 9.04Q61.36 8.46 60.99 7.99Q60.62 7.52 60.08 7.23Q59.53 6.94 58.83 6.94L58.83 6.94Q57.93 6.94 57.32 7.28Q56.72 7.63 56.34 8.21Q55.96 8.79 55.78 9.56Q55.61 10.32 55.56 11.16L55.56 11.16ZM52.83 12L52.83 12Q52.83 10.61 53.28 9.44Q53.73 8.27 54.58 7.43Q55.43 6.59 56.66 6.11Q57.89 5.64 59.45 5.64L59.45 5.64Q60.62 5.64 61.55 6.01Q62.47 6.39 63.12 7.02Q63.76 7.65 64.10 8.48Q64.44 9.32 64.44 10.22L64.44 10.22Q64.44 10.64 64.37 11.06Q64.30 11.48 64.10 11.82Q63.90 12.16 63.54 12.38Q63.18 12.60 62.59 12.60L62.59 12.60L55.58 12.60Q55.70 13.65 56.13 14.46Q56.57 15.27 57.25 15.83Q57.93 16.38 58.82 16.66Q59.71 16.95 60.74 16.95L60.74 16.95Q61.44 16.95 62.19 16.82Q62.94 16.70 63.74 16.44L63.74 16.44L64.13 17.23Q63.64 17.55 63.09 17.79Q62.54 18.02 61.96 18.17Q61.37 18.32 60.76 18.39Q60.15 18.46 59.57 18.46L59.57 18.46Q58.28 18.46 57.06 18.05Q55.85 17.65 54.91 16.84Q53.96 16.03 53.40 14.82Q52.83 13.62 52.83 12ZM70.93 0.62L70.93 16.83L72.97 16.83L72.97 17.71Q72.77 17.81 72.43 17.91Q72.08 18 71.66 18.07Q71.24 18.14 70.78 18.18Q70.32 18.21 69.90 18.21L69.90 18.21Q69.54 18.21 69.23 18.17Q68.93 18.13 68.71 18.01Q68.48 17.88 68.36 17.67Q68.23 17.45 68.23 17.09L68.23 17.09L68.23 1.37L66.15 1.37L66.15 0.48Q66.40 0.38 66.85 0.28Q67.30 0.19 67.83 0.13Q68.36 0.07 68.91 0.04Q69.47 0 69.93 0L69.93 0Q70.17 0 70.36 0.01Q70.55 0.02 70.68 0.08Q70.80 0.14 70.87 0.26Q70.93 0.39 70.93 0.62L70.93 0.62Z" transform="translate(36, 8.772)"></path></svg>